<svg xmlns="http://www.w3.org/2000/svg" viewBox="0 0 279.45 24.26"><defs><style>.cls-1{fill:#43495f;}</style></defs><title>Lettering</title><g id="Layer_2" data-name="Layer 2"><g id="Layer_1-2" data-name="Layer 1"><g id="Outline"><g id="Letters"><path class="cls-1" d="M18.67.4h4.45L13.37,24H9.75L0,.4H4.56l7.07,18Z"/><path class="cls-1" d="M47,24.26a11.91,11.91,0,0,1-12.23-12.1A12,12,0,0,1,47,0,11.92,11.92,0,0,1,59.26,12.1,12,12,0,0,1,47,24.26ZM47,3.79c-4.66,0-7.91,3.72-7.91,8.31s3.32,8.38,8,8.38,7.9-3.72,7.9-8.32S51.62,3.79,47,3.79Z"/><path class="cls-1" d="M88,23.86,81.79,15l-6.2,8.88H70.86l8.55-11.93L71.2.4h4.86l5.83,8.41L87.75.4h4.73L84.3,11.86l8.51,12Z"/><path class="cls-1" d="M124.52,4.09H111.25v6.1H123v3.68H111.25v6.3h13.44v3.69H107.13V.4h17.39Z"/><path class="cls-1" d="M139.64.4h4.12V20.11H156.1v3.75H139.64Z"/><path class="cls-1" d="M208,4.15H194.68v6.41h11.83v3.75H194.68v9.55h-4.12V.4H208Z"/><path class="cls-1" d="M233.59,24.26a11.92,11.92,0,0,1-12.23-12.1A12,12,0,0,1,233.66,0a11.91,11.91,0,0,1,12.23,12.1A12,12,0,0,1,233.59,24.26Zm0-20.47c-4.65,0-7.9,3.72-7.9,8.31s3.31,8.38,8,8.38,7.91-3.72,7.91-8.32A8,8,0,0,0,233.59,3.79Z"/><path class="cls-1" d="M274.59,23.86,268.42,15l-6.2,8.88H257.5L266,11.93,257.83.4h4.86l5.83,8.41L274.39.4h4.72l-8.17,11.46,8.51,12Z"/></g></g></g></g></svg>