<svg xmlns="http://www.w3.org/2000/svg" viewBox="0 0 166.16 162.85"><defs><style>.cls-1{fill:#55cdfc;}.cls-2{fill:#f7a8b8;}.cls-3{fill:#fff;}</style></defs><title>TransFox_1</title><g id="Layer_2" data-name="Layer 2"><g id="Layer_1-2" data-name="Layer 1"><g id="Trans_Flag" data-name="Trans Flag"><path class="cls-1" d="M20,2.78a1.92,1.92,0,0,0-2.68.13C10,11,5.81,22.16,5.06,33.91H42.37A93.88,93.88,0,0,0,20,2.78Z"/><path class="cls-2" d="M112.45,49.76a49.64,49.64,0,0,1-6.92,15.78h22.32A51.86,51.86,0,0,1,112.45,49.76Z"/><path class="cls-2" d="M12,65.54H50.47a95.47,95.47,0,0,0-8.1-31.63H5.06A58,58,0,0,0,12,65.54Z"/><path class="cls-3" d="M48.66,92.36c-.34,1.59-.71,3.19-1.14,4.8h87.59c-6.86-4.37-13.6-8.46-18.44-12.39,16.59.66,28.19-8.31,32.33-11.19.71-.49.5-1.39-.36-1.41a39.6,39.6,0,0,1-20.79-6.63H105.53C95.13,81.76,74.58,98,48.66,92.36Z"/><path class="cls-3" d="M50.47,65.54H12a52.85,52.85,0,0,0,23.08,22,58.1,58.1,0,0,0,13.58,4.85A94.24,94.24,0,0,0,50.47,65.54Z"/><path class="cls-2" d="M33.36,128.78H46.25c35-19.32,78-25.69,115.74-6.92a.11.11,0,0,0,.16-.14c-4.17-9.42-15.78-17.38-27-24.56H47.52A111.61,111.61,0,0,1,33.36,128.78Z"/><path class="cls-1" d="M33.36,128.78A146.7,146.7,0,0,1,17.68,149a158,158,0,0,1,28.57-20.2Z"/><path class="cls-1" d="M17.68,149A149.54,149.54,0,0,0,6.17,160.4C10.35,156.61,14.17,152.8,17.68,149Z"/></g><g id="Outline_Original" data-name="Outline Original"><path d="M7.17,162.85a1.45,1.45,0,0,1-1.07-2.41c1-1.12,2-2.24,3.09-3.35,21.15-23.46,31.13-45.6,34.42-65.41a61.05,61.05,0,0,1-11.69-4.42,56.79,56.79,0,0,1-31.14-42C-2,28.38,2.87,11.19,13.54.43a1.45,1.45,0,0,1,2,0c8.29,8.19,28,30.88,31.53,64.84a99.43,99.43,0,0,1-.38,24.2A46.39,46.39,0,0,0,77,85.75C94,77.52,106,60.12,108.53,47.92a1.45,1.45,0,0,1,2.65-.44c.14.23,13.65,22.59,37,22.59l1.23,0a1.42,1.42,0,0,1,1.38.88,1.45,1.45,0,0,1-.35,1.61,53.29,53.29,0,0,1-32.37,12.78,93.15,93.15,0,0,0,11.21,5.77c12.27,5.74,29.07,13.6,36.71,27.45a1.44,1.44,0,0,1-1.93,2c-57.56-30.17-116-.43-152.76,38.55-1,1.11-2,2.23-3.07,3.33A1.43,1.43,0,0,1,7.17,162.85ZM46.3,92.31q-4.24,25.43-21.57,50c36.16-30.78,86-50.06,135.85-26.74-8.07-10.42-22-16.95-32.53-21.87-7.22-3.37-12.92-6-14.94-9a1.42,1.42,0,0,1-.06-1.51,1.38,1.38,0,0,1,1.33-.73c14.49.71,25.82-5.85,31-9.55-18.57-1.27-30.53-15.16-34.87-21.19C106.6,64.23,94.7,80.4,78.29,88.34A49.14,49.14,0,0,1,46.3,92.31ZM14.59,3.51c-9.34,10.17-13.53,25.84-11,41.3A54,54,0,0,0,33.2,84.68a58.48,58.48,0,0,0,10.85,4.13C50.18,43.66,22,11.15,14.59,3.51Z"/></g></g></g></svg>